<svg
	fill="currentColor"
	viewBox="0 0 24 24"
	x="0px"
	xmlns="http://www.w3.org/2000/svg"
	y="0px"
>
	<path
		d="M 12 2 C 6.4830714 2 2 6.4830754 2 12 C 2 17.516925 6.4830714 22 12 22 C 17.516929 22 22 17.516925 22 12 C 22 6.4830754 17.516929 2 12 2 z M 12 3 C 16.976489 3 21 7.0235146 21 12 C 21 16.976485 16.976489 21 12 21 C 7.0235112 21 3 16.976485 3 12 C 3 7.0235146 7.0235112 3 12 3 z M 16.490234 8.9960938 A 0.50005 0.50005 0 0 0 16.146484 9.1464844 L 10.5 14.792969 L 7.8535156 12.146484 A 0.50005 0.50005 0 1 0 7.1464844 12.853516 L 10.146484 15.853516 A 0.50005 0.50005 0 0 0 10.853516 15.853516 L 16.853516 9.8535156 A 0.50005 0.50005 0 0 0 16.490234 8.9960938 z"
	></path>
</svg>